<svg version="1.1" xmlns="http://www.w3.org/2000/svg" xmlns:xlink="http://www.w3.org/1999/xlink" width="137px" height="110px" viewBox="0 0 137 110">
    <g fill="#fff">
        <path d="M110,97.0052613 C110,94.8014732 108.225388,93 106.000178,93 C103.774255,93 102,94.8014732 102,97.0052613 C102,99.2083479 103.774255,101 106.000178,101 C108.225388,101 110,99.2083479 110,97.0052613 Z M109.350639,97.0052613 C109.350639,98.9217818 107.877377,100.473518 106.000178,100.473518 C104.120486,100.473518 102.649005,98.9217818 102.649005,97.0052613 C102.649005,95.0862855 104.120486,93.5243774 106.000178,93.5243774 C107.877377,93.5243774 109.350639,95.0862855 109.350639,97.0052613 Z M107.703549,99.0245528 L106.636716,97.3125219 C107.135402,97.1329358 107.470591,96.7513153 107.470591,96.045598 C107.470591,95.166959 106.985084,94.9519467 105.964558,94.9519467 L104.537246,94.9519467 L104.537246,99.0245528 L105.222583,99.0245528 L105.222583,97.4615924 L105.618327,97.4615924 C105.733737,97.4615924 105.859833,97.4615924 105.964558,97.4489653 L106.855069,99.0245528 L107.703549,99.0245528 Z M106.78739,96.193967 C106.78739,96.7656962 106.244891,96.9824623 105.710584,96.9824623 L105.222583,96.9824623 L105.222583,95.4303753 L105.803197,95.4303753 C106.347834,95.4303753 106.78739,95.5194669 106.78739,96.193967 Z"></path>
        <path d="M84.3155649,70.1958552 C83.3961572,70.4037107 82.9605046,70.999883 83.0028076,71.4809984 C83.0331702,71.8138413 83.2996108,72.182297 83.9679298,72.2124309 C87.4238111,72.3675521 89.208042,74.6255417 91.0983715,77.0167369 C92.1620869,78.3600934 93.2640116,79.7561843 94.6965136,80.7793679 L95.7725105,81.5792866 C97.5304726,82.9086034 98.5921412,83.716398 99.9628945,82.1090272 C100.725713,81.2183644 101,80.040402 101,78.8480575 C101,76.6400628 100.057394,74.3800187 99.5211012,73.7793948 C95.4374982,69.1891082 85.3325424,69.9647143 84.3155649,70.1958552"></path>
        <path d="M83.6467589,74.0485002 C83.3302112,74.1343381 83.121235,74.3628985 83.0403851,74.7093156 C82.6611446,76.2843723 85.0373074,80.2717457 86.629638,81.692158 C88.6005239,83.4501312 91.1921721,90.2766261 91.9376349,92.3302631 C92.561823,94.0490642 93.6303426,96.047179 94.587865,95.9991507 C94.9825218,95.9831412 95.2668665,95.6469429 95.4299365,95.0014558 L95.8108899,93.700944 C96.6248696,91.031795 97.8544037,86.9940089 96.1236691,85.6338875 C94.9201715,84.685924 92.4518535,82.3178889 90.468292,80.4202588 L87.8348486,77.9394763 L86.7060342,76.4649044 C85.8499167,75.1766551 84.8762929,73.7136644 83.6467589,74.0485002"></path>
        <path d="M12.6730228,7.25737064 C12.2495318,7.55482623 12.0352909,8.09195581 12,8.95867987 L12,8.98876733 C12,10.5676753 16.5607276,18.3069912 17.6804122,18.6047887 L18.1060421,18.7152233 C23.9525712,20.2158355 25.0198542,20.7970706 25.1353518,21.0080247 C25.3510185,21.4989974 25.9948104,22.120577 26.5109847,21.979713 C27.1818686,21.796453 26.9886598,20.6182553 26.924138,20.2319049 C26.2507587,16.1328301 16.883693,7.75415567 14.8075888,7.18899004 C13.8094617,6.91717717 13.1303789,6.93734945 12.6730228,7.25737064 Z M12,8.95867987 L12,8.95662845 L12,8.95867987 Z"></path>
        <path d="M17.5425515,22.0924119 C17.0930238,22.3440537 17.0415049,23.027733 17.0017714,23.5808534 C16.9620378,24.163104 17.5940704,25.9095046 18.5628278,28.5048889 L19.8598919,32.1858072 C20.317501,33.7942786 23.1422857,33.4843768 25.4101275,33.2408072 C26.477882,33.1253398 27.4860362,33.0161898 27.8146797,33.1688594 C28.6487471,33.5591323 33.862258,35.3532641 34.7279775,34.9380728 C34.8980236,34.8552451 34.989276,34.6594067 34.9993778,34.3558222 C35.0370909,33.0344399 33.3534667,28.6638759 31.8614389,27.8194547 C30.6455255,27.1340206 30.4017367,27.1073473 29.6690234,27.0245196 L28.7359589,26.8985232 C27.1533521,26.6405641 20.2919099,23.15759 18.9328884,22.360549 C18.3109576,21.9955457 17.8695113,21.9106122 17.5425515,22.0924119"></path>
        <path d="M39.0759819,31.1834212 C38.8003515,31.5832452 39.3332139,32.3574438 39.7376338,32.7515751 L39.7376338,32.749566 C40.4846826,33.4882693 48.6942347,43.928565 48.8573913,47.6180633 C48.9309853,49.343267 49.1392703,50.174392 50.1723637,50.5370464 C50.1744466,50.5390556 50.3785658,50.6140645 50.3785658,50.6140645 C51.2485027,50.9268246 52.5617395,51.3999832 53.60733,50.3756434 C54.6307035,49.377088 53.447992,47.3401286 52.4065672,45.5395811 L52.0326956,44.8879417 C51.491849,43.9245466 50.5299196,42.8017578 49.5089761,41.6119967 L46.7214289,38.0641446 C44.8020829,35.4227612 41.1997943,31.5892727 39.9969486,31.1184581 C39.539416,30.9413167 39.2287242,30.9627478 39.0759819,31.1834212"></path>
        <path d="M97.9238851,31.1834212 C98.1998628,31.5832452 97.6666532,32.3574438 97.2625803,32.7515751 L97.2625803,32.749566 C96.5148372,33.4882693 88.3056314,43.928565 88.1421276,47.6180633 C88.0688808,49.343267 87.8609429,50.174392 86.8271551,50.5370464 C86.8250722,50.5390556 86.6213001,50.6140645 86.6213001,50.6140645 C85.7513631,50.9268246 84.4377791,51.3999832 83.3928827,50.3756434 C82.369162,49.377088 83.5518736,47.3401286 84.5932985,45.5395811 L84.9671701,44.8879417 C85.5080168,43.9245466 86.4702934,42.8017578 87.4905428,41.6119967 L90.2787845,38.0641446 C92.1977836,35.4227612 95.8004197,31.5892727 97.0029183,31.1184581 C97.460451,30.9413167 97.7707957,30.9627478 97.9238851,31.1834212"></path>
        <path d="M27.0217493,37.1680228 C26.4558189,37.3791715 26.1328552,37.6878005 26.0320323,38.1016519 C25.8062552,39.035281 26.8078726,40.2339017 27.970476,41.6250196 C29.0983699,42.9767231 30.3799773,44.5128298 30.5336909,45.8705159 C30.6890573,47.2827487 32.3518082,48.2350293 33.7150657,48.7836639 C36.8709869,50.0565386 41.8701485,50.5186023 43.2082829,49.2450238 C44.0538727,48.4401954 44.2895668,48.0858175 43.5834762,46.2558622 C42.3332726,43.0038206 39.0857844,42.7697974 36.9351168,42.6146031 L35.8052395,42.5128999 C35.097496,42.4115485 34.097862,41.4075365 33.0380649,40.3415875 C31.1928411,38.4887578 29.1006838,36.385365 27.0217493,37.1680228"></path>
        <path d="M34.4746045,73.80092 C33.6494923,74.7286375 31.867209,79.5882081 34.0347494,82.1257482 C35.4041354,83.7256505 36.5281717,82.8783214 38.2282168,81.590395 L39.2979962,80.7957461 C40.7332411,79.7715623 41.8333907,78.3830647 42.8973691,77.0366428 C44.7885072,74.648249 46.5745442,72.3922397 50.0357159,72.2331731 C50.6980578,72.2051226 50.9649055,71.8411509 50.9969819,71.5110449 C51.0410015,71.0280297 50.6035351,70.4321285 49.6821939,70.2193555 C47.9159487,69.8208338 38.3186447,69.4845704 34.4746045,73.80092"></path>
        <path d="M50.2980743,76.4574165 L49.1633271,77.936183 L46.5954134,80.3531026 C44.5904193,82.2767595 42.091029,84.6711961 40.8757668,85.6291071 C39.1465793,86.99614 40.3741757,91.0280865 41.1882334,93.6953847 L41.5692234,94.9997378 C41.7343648,95.6449311 42.0166811,95.9811537 42.4117184,95.9992082 C43.3710457,96.0455368 44.4389826,94.0500025 45.0618601,92.3283518 C45.5918885,90.8734309 48.3208321,83.5153669 50.3707091,81.6939054 C51.9649055,80.2747529 54.3371849,76.287091 53.9599637,74.7057885 C53.8773931,74.3613902 53.6677115,74.1328133 53.3494204,74.0486725 C52.1242224,73.7138125 51.1525608,75.1707773 50.2980743,76.4574165"></path>
        <path d="M123.193513,7.18624282 C121.117406,7.75149196 111.754604,16.1337982 111.075164,20.2334788 C111.012068,20.6195443 110.81672,21.798258 111.492596,21.9791514 C112.010553,22.122088 112.648286,21.5007585 112.860032,21.0097132 C112.970539,20.798386 114.036397,20.2211684 119.870102,18.7203345 L120.322824,18.6040703 C121.445006,18.3021254 126.064202,10.4570281 125.999323,8.95448439 C125.967954,8.09139374 125.75193,7.55452674 125.328082,7.25873696 C124.870725,6.93866848 124.191998,6.91678346 123.193513,7.18624282"></path>
        <path d="M117.073601,22.3601977 C115.658618,23.1878116 108.847158,26.6466692 107.265745,26.9027769 L106.346006,27.0224108 C105.610889,27.1069614 105.36293,27.1336247 104.13998,27.8188006 C102.642119,28.6671136 100.959636,33.0339257 101.000738,34.3569151 C101.010845,34.6603852 101.101809,34.8565005 101.274302,34.9389462 C102.132051,35.3515252 107.354687,33.5521053 108.189191,33.1640846 C108.516321,33.0093674 109.525002,33.1188272 110.591293,33.236356 C112.864363,33.4819388 115.690624,33.7896189 116.150156,32.1838585 L117.428695,28.5453747 C118.373701,26.0109607 119,24.2792515 119,23.6396839 C119,23.6168797 119,23.5961806 118.998315,23.5800423 C118.96193,23.0309895 118.912743,22.3454628 118.465002,22.0918109 C118.137534,21.9104305 117.695857,21.9967353 117.073601,22.3601977 Z M118.998315,23.5800423 L118.998315,23.5779373 L118.998315,23.5800423 Z"></path>
        <path d="M102.962171,41.3489131 C101.906366,42.4133607 100.907068,43.4200613 100.199894,43.5193581 C100.199894,43.5214708 99.0664314,43.6232324 99.0664314,43.6232324 C96.9164882,43.7806284 93.6704243,44.0147857 92.4183285,47.2623545 C91.7124757,49.095472 91.9520559,49.4521658 92.7468013,50.2078075 C94.1274442,51.5250746 99.1166606,51.0676755 102.269867,49.8018173 C103.642248,49.2511074 105.308404,48.2982807 105.468014,46.8813646 C105.619363,45.5204351 106.900208,43.9876728 108.028053,42.635194 C109.188612,41.2432782 110.193527,40.037632 109.968157,39.1055801 C109.867037,38.6872659 109.5422,38.3826853 108.97646,38.1671901 C106.896573,37.3865483 104.806773,39.4907953 102.962171,41.3489131"></path>
        <path d="M104.100937,73.612532 C103.555694,74.5976847 103.369489,75.4883753 103.369489,76.2825939 C103.369489,77.2483182 103.640606,78.075699 103.864587,78.7654064 C104.098597,79.4825815 104.303188,80.1036196 104.303188,80.9253059 L104.303188,80.9390397 C104.303188,85.3013802 103.603164,85.9833832 102.820234,87.6388148 C101.911607,87.721218 100.265515,87.9520137 98.8597841,89.7766062 C97.636581,91.3653784 97.6014795,92.9668796 97.5700553,94.2494874 C97.5560147,94.9170866 97.5403026,95.546164 97.3751585,96.1826109 C96.1205313,100.929834 94.26383,104.149585 93.1315565,105.34309 C91.343721,103.069635 87.4066719,95.9203278 85.1491451,89.9146147 C82.1956061,82.0662205 79.4205833,74.6767381 73.8728776,75.6639006 C71.3225042,76.113098 69.4644657,77.7229735 68.5006793,80.3220213 L68.0874847,81.6602345 C68.0680953,81.7409627 68.0306537,81.868922 68.0032412,81.9674038 C67.9738228,81.8729417 67.9380527,81.7506769 67.9166575,81.6736334 L67.4997856,80.3180016 C66.5319876,77.7229735 64.6756206,76.113098 62.1309303,75.6639006 C56.5755358,74.6767381 53.8008472,82.0739249 50.8570029,89.9065753 C48.5974703,95.9280321 44.6467149,103.092748 42.8608852,105.35113 C41.75569,104.180737 39.8916341,100.950937 38.6329953,96.181271 C38.4638396,95.5397996 38.4501333,94.9154118 38.4304096,94.2454677 C38.402997,92.9628599 38.3655554,91.3653784 37.1403465,89.7766062 C35.7342815,87.9520137 34.0901949,87.721218 33.1835738,87.6424995 C32.4110068,86.0148706 31.5652283,85.327173 31.5652283,80.9487539 L31.5652283,80.9229611 C31.5672341,80.1036196 31.7658082,79.4825815 32.0018239,78.7633966 C32.2241332,78.075699 32.4952504,77.249993 32.4952504,76.2846037 C32.4952504,75.4883753 32.3087111,74.5976847 31.7617966,73.6105222 C30.1728695,70.7615853 27.1859005,70.16634 24.8180548,69.8330429 L18.340327,69.8330429 C18.739481,71.0510011 19.1132282,71.973179 19.4318159,72.4203666 L20.2518534,73.1040445 C21.2764824,73.5867392 22.4602381,73.7485307 23.7128596,73.9160167 C25.946651,74.2195013 27.4630351,74.5032226 28.1042221,75.6582061 C28.405092,76.197846 28.3773451,76.365332 28.0196443,77.4610254 C27.7481928,78.2927609 27.3784572,79.4316657 27.3764514,80.9212862 C27.3664224,86.8208132 29.0837206,89.2463455 30.011737,90.5390025 C30.810045,91.6467549 32.0098471,91.7489214 32.6547114,91.8018469 C33.274169,91.8547725 33.4610426,91.8711862 33.8247608,92.3404819 C34.1807901,92.7993936 34.2202375,93.2311725 34.2416327,94.3422746 C34.2633622,95.140178 34.2870975,96.1373896 34.5839557,97.2541863 C35.712552,101.544173 38.6547248,109.035822 42.4991728,109.922828 C44.2178082,110.320439 45.7458928,109.3517 49.3152121,102.969144 C51.3995715,99.244255 53.4899483,94.8092256 54.7723225,91.3961958 C56.5695184,86.6178202 59.2756755,79.4155871 61.4011538,79.7957803 C62.1586772,79.9277593 63.0118104,80.2727804 63.5724312,81.7881938 C63.5764428,81.7938883 63.8930247,82.8306267 63.8930247,82.8306267 C64.642525,85.4494378 65.4896407,88.4206395 67.9126459,88.5274956 L68.0874847,88.5274956 C70.5201846,88.4206395 71.3699747,85.4454182 72.1171349,82.8128732 L72.4260279,81.7881938 C72.990326,80.2727804 73.8397819,79.9277593 74.5986425,79.7957803 C76.7261266,79.4175969 79.4282722,86.6121256 81.2161076,91.3653784 C82.5145282,94.8135803 84.608248,99.2469348 86.6889302,102.969144 C90.2562436,109.3517 91.7819881,110.320439 93.5029636,109.922828 C97.3497517,109.035822 100.289584,101.544173 101.424198,97.2508366 C101.717045,96.1353798 101.739109,95.1441976 101.758498,94.3462943 C101.782233,93.2311725 101.825024,92.7993936 102.17537,92.3404819 C102.539088,91.8688413 102.743679,91.8517578 103.353777,91.7998371 C103.994629,91.7445667 105.194097,91.6430702 105.990399,90.5390025 C106.91875,89.2486903 108.495642,86.8305274 108.489959,80.9229611 C108.489959,79.4316657 108.116212,78.2887412 107.845095,77.4590156 C107.48706,76.365332 107.459313,76.1958361 107.758511,75.6618908 C108.40137,74.5052324 109.916082,74.2215111 112.153551,73.9180265 C113.406507,73.7505405 114.588257,73.5867392 115.61088,73.1040445 L116.426906,72.4223765 C116.745159,71.9748539 117.12693,71.0530109 117.534107,69.8330429 L111.048022,69.8330429 C108.678839,70.16634 105.689864,70.7615853 104.100937,73.612532 M131.87791,1.64446633 C127.397958,-3.19654911 113.823044,4.18455906 113.687319,4.26126765 C113.69133,4.26126765 113.433585,4.40731544 113.433585,4.40731544 C110.159118,6.2613855 106.448725,8.36400479 100.751587,13.1346761 C92.940337,19.6766794 84.6359949,32.6384212 79.1394371,41.2177242 C77.2613407,44.1480593 75.2675765,48.3137712 73.9989086,48.3137712 C72.8231761,48.2424222 72.4196762,46.3253774 72.4196762,46.3253774 C72.4196762,46.3253774 72.0756817,43.2198519 71.3051206,42.2799205 C70.9551087,41.8524962 69.9418459,40.6777494 67.9895349,40.6777494 C66.032878,40.6777494 64.8822179,41.9941893 64.5733249,42.4494163 C63.723869,43.7008717 63.8181416,48.3254952 62.1780666,48.3254952 C60.8191378,48.3254952 58.7565079,44.1658129 56.859022,41.2043253 C51.3601241,32.6307168 43.0594593,19.6726597 35.2545612,13.1346761 C29.5574235,8.36969931 25.8466954,6.267415 22.5742343,4.41300997 L22.3128119,4.26126765 C22.1807634,4.18857872 8.60417875,-3.19654911 4.12021513,1.64647616 C1.84697628,4.10182097 3.52048123,8.58274151 4.86369795,12.1806758 L5.3534472,13.5326228 L6.46265404,16.4766918 C8.45073513,21.6449749 12.5843525,32.3999211 13.3158006,37.6609915 C13.3158006,37.6609915 13.394361,38.228769 13.6597951,38.5577115 C14.2147328,39.2494287 14.7198598,39.3636542 14.7198598,39.3636542 C18.7926347,40.7330197 21.8544868,43.4405985 21.9979014,45.7951167 C22.0393546,46.5541633 21.0384609,47.0388678 18.9183314,47.7838455 C17.1666003,48.3941645 14.9893055,49.1568958 14.8833325,51.3539771 C14.8773151,51.5097391 14.8733035,51.6889492 14.8753093,51.8761985 L19.9272483,51.8761985 C20.0572909,51.8289675 20.1849935,51.7854211 20.3009955,51.7418747 C22.377666,51.021015 26.1846725,49.6848116 26.1846725,45.8939334 C26.1846725,45.779373 26.183001,45.6631377 26.1789894,45.5408729 C25.8958375,40.8948112 21.4178912,37.5370518 17.2311202,35.8384088 C16.1025239,29.9114141 12.4248915,20.315136 10.3699505,14.966973 L9.31790889,12.1746463 L8.78704076,10.7088088 C8.35813407,9.56588435 7.16668948,6.37594593 7.16668948,4.92752697 C7.16668948,4.7225241 7.19209627,4.54733374 7.24725574,4.42305913 C8.19700156,3.41412344 15.1213539,4.9965312 20.2518534,7.91480733 C20.2538592,7.91480733 20.5152817,8.06453981 20.5152817,8.06453981 C23.7817253,9.91693501 27.164171,11.83197 32.5701336,16.3540921 C39.8816052,22.4787202 47.9736668,35.1131944 53.3308216,43.4740957 C54.9983092,46.0751533 56.1823992,47.9077851 57.0809971,49.2084814 C58.1193324,50.3845682 59.9382578,51.5670193 61.8086653,51.5670193 C65.7610922,51.5670193 66.3471198,50.0378721 67.9403928,50.0378721 C69.5333315,50.0378721 70.7247761,51.7284758 74.0734575,51.7284758 C76.0364661,51.7284758 77.5568617,50.9302376 78.5340201,49.7618552 C79.4757427,48.44776 80.7497594,46.4694153 82.6636259,43.4858197 C88.0221179,35.1192239 96.1185255,22.4824049 103.43802,16.3540921 C108.841977,11.8282853 112.224088,9.91291534 115.494878,8.06052015 L115.75396,7.91480733 C120.884794,4.99854104 127.807141,3.41412344 128.81004,4.49809286 C128.853165,4.60059429 128.871217,4.74228745 128.871217,4.91781278 C128.871217,6.27545432 127.65002,9.55817999 127.21543,10.7245525 L126.686568,12.1746463 L125.649904,14.9177321 C123.58694,20.2776192 119.899612,29.8933256 118.771016,35.8363989 C114.586251,37.5390616 110.106633,40.896821 109.829499,45.5408729 C109.821476,45.6614629 109.815458,45.7817178 109.815458,45.899628 C109.815458,49.6848116 113.628482,51.0169953 115.703147,51.7418747 C115.819483,51.7837462 115.947186,51.8269576 116.0789,51.8761985 L121.128833,51.8761985 C121.130504,51.6889492 121.130504,51.5097391 121.122816,51.3502925 C121.016843,49.1568958 118.83587,48.3941645 117.085477,47.7794909 C114.965347,47.0388678 113.962782,46.5518185 114.008247,45.7951167 C114.149655,43.4405985 117.209836,40.7330197 121.280605,39.3579596 C121.280605,39.3579596 121.913435,39.2356949 122.296877,38.6287256 C122.678313,38.0217563 122.686336,37.6609915 122.686336,37.6609915 C123.417784,32.3841774 127.565108,21.6094679 129.555529,16.4294608 L130.646683,13.5326228 C130.651029,13.5326228 131.134427,12.1944097 131.134427,12.1944097 C132.481655,8.58843603 134.153154,4.10785047 131.87791,1.64446633"></path>
        <polygon points="15 68 15 55 24.8108884 55 24.8108884 57.6905969 18.7134943 57.6905969 18.7134943 60.0340309 24.3622187 60.0340309 24.3622187 62.7205315 18.7134943 62.7205315 18.7134943 65.2226978 25 65.2226978 25 68"></polygon>
        <polygon points="31 55 34.4657254 55 39.1022808 61.8773731 39.1364158 61.8773731 39.1364158 55 42 55 42 68 39.208782 68 33.8977192 60.622535 33.8635842 60.622535 33.8635842 68 31 68"></polygon>
        <path d="M50.4137631,68 C48.0290137,68 45,66.1361762 45,61.6203293 C45,56.9979781 47.9442509,55 50.9380863,55 L55,55 L55,57.7728645 L51.1923747,57.7728645 C49.8224337,57.7728645 48.8746315,58.6702991 48.8746315,61.3793294 C48.8746315,64.188378 49.771509,65.2588819 51.5310909,65.2588819 L55,65.2588819 L55,68 L50.4137631,68 Z"></path>
        <polygon points="60 55 64.0118931 55 64.0118931 59.9114828 67.9884747 59.9114828 67.9884747 55 72 55 72 68 67.9884747 68 67.9884747 62.8072368 64.0118931 62.8072368 64.0118931 68 60 68"></polygon>
        <path d="M112,55 L117.304944,55 C121.686361,55 124,57.7243915 124,61.3953733 C124,64.3092193 122.693219,68 116.972998,68 L112,68 L112,55 Z M115.757468,65.5159257 L116.747798,65.5159257 C118.52254,65.5159257 120.035582,64.4297193 120.035582,61.3776226 C120.035582,59.3796445 119.25358,57.4475488 116.940285,57.4475488 L115.757468,57.4475488 L115.757468,65.5159257 Z"></path>
        <polygon points="127 68 127 55 136.81123 55 136.81123 57.6905969 130.713494 57.6905969 130.713494 60.0340309 136.360509 60.0340309 136.360509 62.7205315 130.713494 62.7205315 130.713494 65.2226978 137 65.2226978 137 68"></polygon>
        <path d="M102.269866,68 L106,68 L101.852009,55 L98.1199639,55 L94,68 L96.7520569,68 L97.6142046,65.1807106 L101.460269,65.1807106 L102.269866,68 Z M98.4569245,62.4235486 L99.5830989,58.7587112 L99.6149477,58.7587112 L100.669781,62.4235486 L98.4569245,62.4235486 Z"></path>
        <polygon points="76 55 81.4759707 55 83.5686962 61.2080208 83.6060725 61.2080208 85.626814 55 91 55 91 68 87.2291489 68 87.2291489 58.7952159 87.1969638 58.7952159 84.2490829 68 81.9995847 68 78.9312692 58.7952159 78.8949311 58.7952159 78.8949311 68 76 68"></polygon>
        <path d="M8.95478991,61.3100034 C10.3710183,60.8781154 11.6599492,59.9481052 11.6599492,58.3960396 C11.6599492,56.2389894 9.65368477,55 6.61024762,55 L0,55 L0,68 L7.07334082,68 C11.0135335,68 12,66.1744623 12,64.5032434 C12,62.7418914 10.6546894,61.6575623 8.95478991,61.3100034 Z M5.83830743,57.3776033 C6.7683943,57.3776033 7.79067431,57.6906794 7.79067431,58.7593035 C7.79067431,59.862069 6.82512854,60.1570502 5.83830743,60.1570502 L3.86714733,60.1570502 L3.86714733,57.3776033 L5.83830743,57.3776033 Z M6.05318835,65.6217139 L3.86714733,65.6217139 L3.86714733,62.7442813 L6.05318835,62.7418914 C7.12759293,62.7418914 7.91584422,63.0170707 7.91584422,64.1918744 C7.91584422,65.2082622 6.98362981,65.6217139 6.05318835,65.6217139 Z"></path>
        <path d="M60,100.597401 L60,95 L61.3905475,95 L61.3905475,100.731772 C61.3905475,101.44397 61.6447036,101.725703 62.0008704,101.725703 C62.3552964,101.725703 62.6091044,101.44397 62.6091044,100.731772 L62.6091044,95 L64,95 L64,100.597401 C64,102.256347 63.1501436,103 62.0008704,103 C60.8498564,103 60,102.256347 60,100.597401"></path>
        <polygon points="64 103 66 103 66 101 64 101"></polygon>
        <path d="M66.1302289,102.673051 L66.1302289,101.241713 C66.6917916,101.524636 67.133386,101.680944 67.562352,101.680944 C68.0197316,101.680944 68.409629,101.490167 68.409629,101.00657 L68.409629,100.98268 C68.409629,100.622968 68.2797948,100.351649 67.5252565,99.6076533 C66.4435675,98.5493366 66,98.0435562 66,97.0859178 L66,97.0633932 C66,95.8006484 66.9518548,95 68.2146803,95 C68.8508287,95 69.2292818,95.0798601 69.621547,95.2487948 L69.621547,96.6797918 C69.124704,96.4316795 68.8275454,96.3187151 68.409629,96.3187151 C67.968824,96.3187151 67.590371,96.5675099 67.590371,96.995478 L67.590371,97.0173201 C67.590371,97.3889766 67.7202052,97.524807 68.4771113,98.2804061 C69.7257301,99.5291583 70,100.014462 70,100.91613 L70,100.938313 C70,102.176827 68.9968429,103 67.7458564,103 C67.1211523,103 66.5876085,102.863828 66.1302289,102.673051"></path>
        <polygon points="70 103 72 103 72 101 70 101"></polygon>
        <path d="M72.342514,95 L73.6584041,95 L75,103 L73.7682656,103 L73.5359957,101.413945 L72.4128988,101.413945 L72.1931757,103 L71,103 L72.342514,95 Z M73.3545253,100.160979 L72.9799556,97.5300945 L72.5965114,100.160979 L73.3545253,100.160979 Z"></path>
        <polygon points="76 103 78 103 78 101 76 101"></polygon>
    </g>
</svg>